#!OML:ASF H:\Not Pregnant\Project 1\Capture day 1\Session 1\non-pregnant.ASF
:FULLY-SPECIFIED
:DEGREES
1070
root 1.70653 15.6317 30.8655 11.5555 -8.34346 353.906
lowerback -1.98525 2.21558 6.89799
upperback -9.14034 3.14313 -0.294582
thorax -8.16411 1.02595 -4.31089
lowerneck 13.6095 -12.4167 -28.7212
upperneck -3.69905 -22.2097 40.6843
head 5.61061 -12.7241 18.4686
rclavicle 1.98785e-016 1.47101e-014
rhumerus -31.5013 11.6586 -82.371
rradius 63.2025
rwrist -11.2163
rhand -14.7267 -20.4466
rfingers 7.12502
rthumb 11.4284 -50.1151
lclavicle 1.98785e-016 1.47101e-014
lhumerus -40.4405 -13.127 77.88
lradius 71.1967
lwrist 55.9634
lhand -23.8653 7.94121
lfingers 7.12502
lthumb 2.60749 37.905
rfemur -17.3401 10.3455 28.155
rtibia 33.1425
rfoot -20.5794 4.98282
rtoes -21.6249
lfemur -40.1324 -0.979514 -7.73601
ltibia 28.4471
lfoot -9.84967 0.994415
ltoes -35.2353
1071
root 1.73536 15.6173 30.9679 11.5439 -8.6286 353.896
lowerback -2.12346 2.22934 6.91757
upperback -9.12508 3.14914 -0.287912
thorax -8.06533 1.0319 -4.30782
lowerneck 13.572 -12.4296 -28.7266
upperneck -3.52554 -22.2672 40.6117
head 5.67434 -12.7412 18.4176
rclavicle -3.3694e-014 -2.18663e-014
rhumerus -31.6367 12.0805 -82.6013
rradius 63.1512
rwrist -12.4155
rhand -16.3112 -20.273
rfingers 7.12502
rthumb 9.89995 -50.0202
lclavicle -3.3694e-014 -2.18663e-014
lhumerus -40.5075 -13.0945 77.8882
lradius 71.1002
lwrist 56.0098
lhand -23.8324 7.87548
lfingers 7.12502
lthumb 2.63924 37.8389
rfemur -16.9925 10.4664 28.0325
rtibia 33.2906
rfoot -20.8186 4.93723
rtoes -22.0066
lfemur -39.7954 -0.808075 -8.07171
ltibia 28.4154
lfoot -9.8239 0.28164
ltoes -35.3385
1072
root 1.76523 15.604 31.0704 11.5335 -8.90507 353.892
lowerback -2.29531 2.25007 6.94889
upperback -9.11237 3.16166 -0.286047
thorax -7.94848 1.04073 -4.31507
lowerneck 13.5825 -12.4278 -28.7529
upperneck -3.36987 -22.3133 40.5448
head 5.72384 -12.7585 18.3828
rclavicle 2.37548e-014 9.14409e-015
rhumerus -31.8068 12.5036 -82.8263
rradius 63.126
rwrist -13.6901
rhand -17.9626 -20.0292
rfingers 7.12502
rthumb 8.30647 -49.8459
lclavicle 2.37548e-014 9.14409e-015
lhumerus -40.5892 -13.0604 77.9153
lradius 71.0103
lwrist 56.0512
lhand -23.7978 7.82989
lfingers 7.12502
lthumb 2.67259 37.7929
rfemur -16.6334 10.5488 27.9018
rtibia 33.4085
rfoot -21.0363 4.90321
rtoes -22.4114
lfemur -39.4465 -0.697659 -8.40095
ltibia 28.443
lfoot -9.61056 -0.620683
ltoes -35.0378
1073
root 1.79523 15.592 31.1714 11.5329 -9.18049 353.87
lowerback -2.46621 2.2759 6.99074
upperback -9.10981 3.18205 -0.277126
thorax -7.8427 1.05233 -4.32121
lowerneck 13.5989 -12.4264 -28.7901
upperneck -3.20808 -22.363 40.4618
head 5.77362 -12.777 18.3414
rclavicle 2.0773e-014 -4.77083e-015
rhumerus -32.0301 13.0123 -83.0994
rradius 63.1443
rwrist -15.3278
rhand -20.0811 -19.6661
rfingers 7.12502
rthumb 6.26154 -49.5535
lclavicle 2.0773e-014 -4.77083e-015
lhumerus -40.6836 -13.0268 77.9594
lradius 70.9269
lwrist 56.0905
lhand -23.7526 7.79774
lfingers 7.12502
lthumb 2.71625 37.7602
rfemur -16.2653 10.6353 27.7917
rtibia 33.4745
rfoot -21.1982 4.85752
rtoes -22.8482
lfemur -39.1273 -0.621336 -8.6906
ltibia 28.5404
lfoot -9.08993 -1.7468
ltoes -34.0411
1074
root 1.82571 15.5838 31.2728 11.5428 -9.44769 353.83
lowerback -2.63574 2.30072 7.04693
upperback -9.12482 3.20272 -0.256258
thorax -7.75749 1.06223 -4.32317
lowerneck 13.6397 -12.4141 -28.8487
upperneck -3.05443 -22.4045 40.3827
head 5.81728 -12.7946 18.3118
rclavicle 6.36111e-015 2.0276e-014
rhumerus -32.1451 13.062 -83.0733
rradius 63.1011
rwrist -15.2653
rhand -19.9044 -19.7496
rfingers 7.12502
rthumb 6.43207 -49.632
lclavicle 6.36111e-015 2.0276e-014
lhumerus -40.8118 -12.985 78.0238
lradius 70.8489
lwrist 56.1248
lhand -23.6968 7.7759
lfingers 7.12502
lthumb 2.77015 37.7377
rfemur -15.8709 10.7048 27.702
rtibia 33.4739
rfoot -21.3097 4.81722
rtoes -23.2739
lfemur -38.8537 -0.587484 -8.9367
ltibia 28.712
lfoot -8.17161 -3.03
ltoes -32.0655
1075
root 1.85647 15.5799 31.3741 11.5655 -9.69364 353.776
lowerback -2.81742 2.31973 7.11698
upperback -9.13868 3.2149 -0.228377
thorax -7.66512 1.06757 -4.32453
lowerneck 13.6646 -12.4016 -28.9078
upperneck -2.91662 -22.4389 40.3154
head 5.85928 -12.8082 18.2881
rclavicle -4.67144e-015 0
rhumerus -32.2378 13.0885 -83.0271
rradius 63.0712
rwrist -15.137
rhand -19.6528 -19.9825
rfingers 7.12502
rthumb 6.67497 -49.8573
lclavicle -4.67144e-015 0
lhumerus -40.9262 -12.9325 78.0952
lradius 70.7628
lwrist 56.1575
lhand -23.6366 7.74454
lfingers 7.12502
lthumb 2.82834 37.7055
rfemur -15.4543 10.7547 27.6287
rtibia 33.4059
rfoot -21.3594 4.78044
rtoes -23.6987
lfemur -38.6514 -0.596191 -9.14642
ltibia 28.9606
lfoot -6.8864 -4.30011
ltoes -29.1136
